<svg id="Layer_1" data-name="Layer 1" xmlns="http://www.w3.org/2000/svg" viewBox="0 0 1779 840.01"><defs><style>.cls-1{fill:#ee3124;}</style></defs><polygon points="1409.91 104.11 1667.42 354.1 1379.78 633.35 111.4 633.35 326.45 424.58 326.45 104.11 1409.91 104.11"/><path class="cls-1" d="M1770.54,889.51H1749v25.77H530L380.36,772.63H105.92l225-214.45V212.74H1525.74l276.84,263.91-310.5,296h-990v20.51H1501l332-316.49L1534.65,192.24H309.38V549.69L54,793.14H371.45L521.09,935.78H1749V963.9h78V889.51h-56.53Zm35,53.89h-35V910h35Z" transform="translate(-54 -123.89)"/><polygon class="cls-1" points="1719.79 227.21 1633.37 140.78 1458.41 140.78 1338.13 20.5 894.05 20.5 894.05 0 1346.62 0 1466.9 120.28 1641.86 120.28 1734.29 212.71 1719.79 227.21"/></svg>